<svg width="24" height="24" viewBox="0 0 24 24" fill="none" xmlns="http://www.w3.org/2000/svg">
<path d="M12 4C13.0506 4 14.0909 4.20693 15.0615 4.60896C16.0321 5.011 16.914 5.60028 17.6569 6.34315C18.3997 7.08602 18.989 7.96793 19.391 8.93853C19.7931 9.90914 20 10.9494 20 12H15.2C15.2 11.5798 15.1172 11.1637 14.9564 10.7754C14.7956 10.3872 14.5599 10.0344 14.2627 9.73726C13.9656 9.44011 13.6128 9.2044 13.2246 9.04359C12.8363 8.88277 12.4202 8.8 12 8.8V4Z" fill="#81A4BB"/>
<path d="M16.7023 18.4721C15.6801 19.2148 14.4966 19.7048 13.2486 19.902C12.0007 20.0992 10.7238 19.998 9.52242 19.6067C8.32109 19.2154 7.22951 18.5451 6.33708 17.6508C5.44464 16.7564 4.77673 15.6634 4.38802 14.4612C3.99931 13.2591 3.90087 11.9819 4.10074 10.7344C4.30062 9.48686 4.79314 8.3044 5.53797 7.28384C6.2828 6.26328 7.25876 5.43365 8.38593 4.86288C9.51311 4.2921 10.7594 3.99642 12.0229 4.00003L12.0092 8.80001C11.5038 8.79857 11.0052 8.91684 10.5544 9.14515C10.1035 9.37346 9.71312 9.70531 9.41519 10.1135C9.11726 10.5218 8.92025 10.9947 8.8403 11.4938C8.76035 11.9928 8.79972 12.5036 8.95521 12.9845C9.11069 13.4654 9.37786 13.9026 9.73483 14.2603C10.0918 14.6181 10.5284 14.8862 11.009 15.0427C11.4895 15.1992 12.0003 15.2397 12.4995 15.1608C12.9986 15.0819 13.4721 14.8859 13.8809 14.5889L16.7023 18.4721Z" fill="#CDDBE4"/>
<path d="M20 12C20 13.2625 19.7012 14.507 19.1281 15.6319C18.5549 16.7568 17.7237 17.7301 16.7023 18.4721L13.8809 14.5889C14.2895 14.292 14.622 13.9027 14.8512 13.4528C15.0805 13.0028 15.2 12.505 15.2 12H20Z" fill="#ACC3D2"/>
</svg>
