<svg width="152" height="64" viewBox="0 0 152 64" fill="none" xmlns="http://www.w3.org/2000/svg">
<path d="M24 64V0H45.9918C49.1828 0 52.0575 0.700952 54.616 2.10286C57.2033 3.47429 59.2444 5.45524 60.7392 8.04571C62.2628 10.6057 63.0246 13.6381 63.0246 17.1429C63.0246 18.6971 62.809 20.2667 62.3778 21.8514C61.9466 23.4362 61.2854 24.8686 60.3942 26.1486C59.5031 27.3981 58.3532 28.3276 56.9446 28.9371C58.8131 29.4248 60.3368 30.3086 61.5154 31.5886C62.694 32.8686 63.614 34.3771 64.2751 36.1143C64.9363 37.821 65.3819 39.5733 65.6119 41.3714C65.8706 43.1391 66 44.7848 66 46.3086C66 49.6914 65.2094 52.7086 63.6283 55.36C62.0472 58.0114 59.9199 60.1143 57.2464 61.6686C54.6016 63.2229 51.6694 64 48.4497 64H24ZM34.5216 54.4457H47.3717C49.0965 54.4457 50.6489 54.0038 52.0287 53.12C53.4086 52.2362 54.5154 51.0171 55.3491 49.4629C56.1828 47.9086 56.5996 46.141 56.5996 44.16C56.5996 42.4533 56.1828 40.8381 55.3491 39.3143C54.5154 37.7905 53.4086 36.5562 52.0287 35.6114C50.6489 34.6667 49.0965 34.1943 47.3717 34.1943H34.5216V54.4457ZM34.5216 24.7771H44.7844C46.9117 24.7771 48.7228 24.0762 50.2177 22.6743C51.7413 21.2724 52.5031 19.4133 52.5031 17.0971C52.5031 14.6286 51.7413 12.7695 50.2177 11.52C48.7228 10.24 46.9117 9.6 44.7844 9.6H34.5216V24.7771Z" fill="white"/>
<path fill-rule="evenodd" clip-rule="evenodd" d="M22 24.1371H11.1948V0H0V64H11.1948V35.2914H22V24.1371ZM66.1015 35.2914C65.3589 33.3786 64.3233 31.6854 62.9867 30.2338C62.3879 29.5835 61.7213 29.0211 60.9925 28.5441C61.3629 28.1646 61.7065 27.753 62.0225 27.3099L62.0291 27.3006L62.0356 27.2913C62.7179 26.3113 63.2799 25.2585 63.7234 24.1371H140.805V0H152V64H140.805V35.2914H66.1015Z" fill="white"/>
<path fill-rule="evenodd" clip-rule="evenodd" d="M74.3891 37.2914C74.762 39.7629 75.4029 42.1423 76.3118 44.4298C77.8821 48.2792 80.0339 51.6731 82.7674 54.6116C85.5299 57.5501 88.7286 59.8568 92.3635 61.5317C95.9984 63.1772 99.8805 64 104.01 64C108.953 64 113.504 62.8393 117.662 60.5179C121.821 58.1965 125.267 55.1258 128 51.3058L118.491 46.1047C116.775 48.2498 114.653 49.9835 112.123 51.3058C109.622 52.5987 106.918 53.2452 104.01 53.2452C101.334 53.2452 98.8191 52.7016 96.4636 51.6143C94.1373 50.4977 92.0872 48.9697 90.3134 47.0303C88.5396 45.0615 87.1438 42.7989 86.126 40.2424C85.7559 39.2855 85.4551 38.3019 85.2236 37.2914H74.3891ZM86.8378 22.1371H75.4115C75.6747 21.2675 75.9748 20.4118 76.3118 19.5702C77.8821 15.6915 80.0339 12.2975 82.7674 9.38843C85.5299 6.44996 88.7286 4.15794 92.3635 2.5124C95.9984 0.837466 99.8805 0 104.01 0C108.953 0 113.504 1.1607 117.662 3.48209C121.821 5.77411 125.267 8.84482 128 12.6942L118.491 17.8512C116.775 15.7062 114.638 13.9871 112.079 12.6942C109.549 11.4013 106.859 10.7548 104.01 10.7548C101.334 10.7548 98.8191 11.3131 96.4636 12.4298C94.1082 13.517 92.0436 15.045 90.2698 17.0138C88.8874 18.5252 87.7434 20.233 86.8378 22.1371Z" fill="white"/>
</svg>
