<svg width="57" height="56" viewBox="0 0 57 56" fill="none" xmlns="http://www.w3.org/2000/svg">
<rect x="0.5" width="56" height="56" rx="28" fill="#202020"/>
<g clip-path="url(#clip0_154_1238)">
<path d="M38.4086 22.8634C38.2578 22.9804 35.5954 24.4806 35.5954 27.8164C35.5954 31.6748 38.9832 33.0398 39.0846 33.0736C39.069 33.1568 38.5464 34.943 37.2984 36.763C36.1856 38.3646 35.0234 39.9636 33.2554 39.9636C31.4874 39.9636 31.0324 38.9366 28.9914 38.9366C27.0024 38.9366 26.2952 39.9974 24.678 39.9974C23.0608 39.9974 21.9324 38.5154 20.635 36.6954C19.1322 34.5582 17.918 31.238 17.918 28.0868C17.918 23.0324 21.2044 20.3518 24.4388 20.3518C26.1574 20.3518 27.59 21.4802 28.669 21.4802C29.696 21.4802 31.2976 20.2842 33.2528 20.2842C33.9938 20.2842 36.6562 20.3518 38.4086 22.8634ZM32.3246 18.1444C33.1332 17.185 33.7052 15.8538 33.7052 14.5226C33.7052 14.338 33.6896 14.1508 33.6558 14C32.3402 14.0494 30.775 14.8762 29.8312 15.9708C29.0902 16.8132 28.3986 18.1444 28.3986 19.4938C28.3986 19.6966 28.4324 19.8994 28.448 19.9644C28.5312 19.98 28.6664 19.9982 28.8016 19.9982C29.982 19.9982 31.4666 19.2078 32.3246 18.1444Z" fill="white"/>
</g>
<defs>
<clipPath id="clip0_154_1238">
<rect width="21.164" height="26" fill="white" transform="translate(17.918 14)"/>
</clipPath>
</defs>
</svg>
