<svg width="16" height="16" viewBox="0 0 16 16" fill="none" xmlns="http://www.w3.org/2000/svg">
<path d="M3.33337 6.00002C3.33337 6.35364 3.47385 6.69278 3.7239 6.94283C3.97395 7.19288 4.31309 7.33335 4.66671 7.33335C5.02033 7.33335 5.35947 7.19288 5.60952 6.94283C5.85956 6.69278 6.00004 6.35364 6.00004 6.00002C6.00004 5.6464 5.85956 5.30726 5.60952 5.05721C5.35947 4.80716 5.02033 4.66669 4.66671 4.66669C4.31309 4.66669 3.97395 4.80716 3.7239 5.05721C3.47385 5.30726 3.33337 5.6464 3.33337 6.00002Z" stroke="#98ACC3" stroke-linecap="round" stroke-linejoin="round"/>
<path d="M14.6667 11.3333V9.33331H1.33337" stroke="#98ACC3" stroke-linecap="round" stroke-linejoin="round"/>
<path d="M1.33337 5.33331V11.3333" stroke="#98ACC3" stroke-linecap="round" stroke-linejoin="round"/>
<path d="M8 9.33333H14.6667V8C14.6667 7.46957 14.456 6.96086 14.0809 6.58579C13.7058 6.21071 13.1971 6 12.6667 6H8V9.33333Z" stroke="#98ACC3" stroke-linecap="round" stroke-linejoin="round"/>
</svg>
