<svg width="343" height="343" viewBox="0 0 343 343" fill="none" xmlns="http://www.w3.org/2000/svg">
<path fill-rule="evenodd" clip-rule="evenodd" d="M233.532 66.1934L321.543 135.072V208.126L310.11 209.079V264.806L290.654 266.928L290.647 266.929L204.838 277.72L198.673 276.693V272.936L143.907 271.048L115.322 276.765L21.4565 272.933V199.663L32.8899 198.71V111.145L90.5282 91.9326L109.598 99.5604L233.532 66.1934ZM109.112 100.351L90.9712 93.095V193.02L109.112 195.741V100.351ZM105.621 196.142L90.5025 193.875L37.9434 199.131L52.4066 200.577L105.621 196.142ZM33.8045 198.625L90.0565 193V93.054L33.8045 111.805V198.625ZM33.3434 199.59L22.3712 200.504V272.055L114.829 275.829V195.857L199.588 187.67V275.918L204.39 276.718V186.8L232.973 184.418V67.2912L110.027 100.392V123.288L214.832 99.4687V145.211L110.027 162.361V196.693L52.399 201.495L33.3434 199.59ZM110.027 161.434L120.545 159.713V128.93L110.027 124.547V161.434ZM111.067 123.99L121.044 128.147L144.841 122.805V119.217L149.091 118.154L155.284 119.186V120.461L213.918 107.298V100.615L111.067 123.99ZM213.918 108.235L155.284 121.398V154.028L213.918 144.434V108.235ZM154.369 154.178V119.961L149.567 119.161V154.964L154.369 154.178ZM148.652 155.113V119.207L145.756 119.931V155.587L148.652 155.113ZM144.841 155.737V123.742L121.46 128.991V159.563L144.841 155.737ZM233.888 67.6331V184.486L320.629 207.114V135.517L233.888 67.6331ZM318.38 207.472L233.391 185.301L208.063 187.412L309.68 208.197L318.38 207.472ZM309.195 209.032L205.305 187.781V276.74L290.14 266.071V220.067L301.535 221.103V264.821L309.195 263.986V209.032ZM300.62 264.921V221.938L297.724 221.675V265.237L300.62 264.921ZM296.809 265.337V221.592L291.055 221.069V265.965L296.809 265.337ZM115.743 275.748L143.412 270.214V200.484L115.743 196.795V275.748ZM119.291 196.345L143.882 199.624L198.673 195.373V188.677L119.291 196.345ZM198.673 196.29L144.327 200.507V270.147L154.845 270.51V208.223L174.816 207.225V271.198L198.673 272.021V196.29ZM173.901 271.167V209.143L158.618 210.042V270.64L173.901 271.167ZM157.704 270.608V209.941L155.76 209.293V270.541L157.704 270.608ZM157.755 208.994L158.222 209.149L173.901 208.227V208.186L157.755 208.994ZM70.0101 124.248V152.338L42.4177 158.25V130.161L70.0101 124.248ZM43.3323 131.116L50.0399 132.793V155.682L43.3323 157.119V131.116ZM50.9545 155.486L69.0954 151.598V129.183L50.9545 132.811V155.486ZM50.5084 131.967L69.0954 128.25V125.38L44.8977 130.565L50.5084 131.967ZM282.994 126.818L306.775 142.672V170.334L282.994 158.444V126.818ZM283.909 128.527V131.245L302.546 144.291L305.409 142.86L283.909 128.527ZM305.861 143.657L302.964 145.105V167.406L305.861 168.854V143.657ZM302.05 166.949V145.06L283.909 132.362V157.878L302.05 166.949ZM80.0143 215.802V266.304L37.1774 264.356V217.749L80.0143 215.802ZM45.7143 218.277V262.528L79.0996 263.919V216.759L45.7143 218.277ZM79.0996 264.835L45.276 263.425L43.0244 263.707L79.0996 265.346V264.835ZM38.092 263.401V218.623L44.7996 218.318V262.563L38.092 263.401Z" fill="white" fill-opacity="0.3"/>
<path fill-rule="evenodd" clip-rule="evenodd" d="M232.973 60.9249V59.0722H233.888V60.9249H232.973ZM232.973 68.3354V64.6301H233.888V68.3354H232.973ZM232.973 75.7458V72.0406H233.888V75.7458H232.973ZM232.973 83.1563V79.4511H233.888V83.1563H232.973ZM90.0565 86.6135V84.7972H90.9712V86.6135H90.0565ZM232.973 90.5668V86.8616H233.888V90.5668H232.973ZM90.0565 93.8784V90.2459H90.9712V93.8784H90.0565ZM109.112 94.2774V92.4195H110.027V94.2774H109.112ZM232.973 97.9773V94.2721H233.888V97.9773H232.973ZM90.0565 101.143V97.5109H90.9712V101.143H90.0565ZM109.112 101.709V97.9932H110.027V101.709H109.112ZM232.973 105.388V101.683H233.888V105.388H232.973ZM32.8899 105.69V103.853H33.8045V105.69H32.8899ZM90.0565 108.408V104.776H90.9712V108.408H90.0565ZM109.112 109.141V105.425H110.027V109.141L109.112 109.141ZM232.973 112.798V109.093H233.888V112.798H232.973ZM32.8899 113.04V109.365H33.8045V113.04H32.8899ZM90.0565 115.673V112.041H90.9712V115.673H90.0565ZM109.112 116.572V112.857H110.027V116.572H109.112ZM232.973 120.209V116.504H233.888V120.209H232.973ZM32.8899 120.39V116.715H33.8045V120.39H32.8899ZM90.0565 122.938V119.306H90.9712V122.938H90.0565ZM109.112 124.004V120.288H110.027V124.004H109.112ZM232.973 127.619V123.914H233.888V127.619H232.973ZM32.8899 127.74V124.065H33.8045V127.74H32.8899ZM90.0565 130.203V126.571H90.9712V130.203H90.0565ZM320.629 129.498V127.672H321.543V129.498H320.629ZM109.112 131.436V127.72H110.027V131.436H109.112ZM232.973 135.03V131.325H233.888V135.03H232.973ZM32.8899 135.09V131.415H33.8045V135.09H32.8899ZM320.629 136.803V133.151H321.543V136.803H320.629ZM90.0565 137.468V133.836H90.9712V137.468H90.0565ZM109.112 138.867V135.152H110.027V138.867H109.112ZM232.973 142.44V138.735H233.888V142.44H232.973ZM32.8899 142.44V138.765H33.8045V142.44H32.8899ZM320.629 144.108V140.455H321.543V144.108H320.629ZM90.0565 144.733V141.1H90.9712V144.733H90.0565ZM109.112 146.299V142.583H110.027V146.299H109.112ZM32.8899 149.79V146.115H33.8045V149.79H32.8899ZM232.973 149.851V146.146H233.888V149.851H232.973ZM320.629 151.412V147.76H321.543V151.412H320.629ZM90.0565 151.998V148.365H90.9712V151.998H90.0565ZM109.112 153.731V150.015H110.027V153.731H109.112ZM32.8899 157.14V153.465H33.8045V157.14H32.8899ZM232.973 157.261V153.556H233.888V157.261H232.973ZM320.629 158.717V155.065H321.543V158.717H320.629ZM90.0565 159.263V155.63H90.9712V159.263H90.0565ZM109.112 161.162V157.447H110.027V161.162H109.112ZM32.8899 164.49V160.815H33.8045V164.49H32.8899ZM232.973 164.672V160.967H233.888V164.672H232.973ZM320.629 166.022V162.369H321.543V166.022H320.629ZM90.0565 166.528V162.895H90.9712V166.528H90.0565ZM109.112 168.594V164.878H110.027V168.594H109.112ZM32.8899 171.84V168.165H33.8045V171.84H32.8899ZM232.973 172.082V168.377H233.888V172.082H232.973ZM320.629 173.326V169.674H321.543V173.326H320.629ZM90.0565 173.793V170.16H90.9712V173.793H90.0565ZM109.112 176.026V172.31H110.027V176.026H109.112ZM32.8899 179.19V175.515H33.8045V179.19H32.8899ZM232.973 179.493V175.788H233.888V179.493H232.973ZM320.629 180.631V176.978H321.543V180.631H320.629ZM90.0565 181.058V177.425H90.9712V181.058H90.0565ZM109.112 183.457V179.742H110.027V183.457H109.112ZM204.39 181.947V180.075H205.305V181.947H204.39ZM198.673 182.397V180.551H199.588V182.397H198.673ZM32.8899 186.54V182.865H33.8045V186.54H32.8899ZM232.973 186.903V183.198H233.888V186.903H232.973ZM320.629 187.935V184.283H321.543V187.935H320.629ZM90.0565 188.322V184.69H90.9712V188.322H90.0565ZM204.39 189.433V185.69H205.305V189.433H204.39ZM198.673 189.781V186.089H199.588V189.781H198.673ZM109.112 190.889V187.173H110.027V190.889H109.112ZM114.829 190.482V188.65H115.743V190.482H114.829ZM32.8899 193.89V190.215H33.8045V193.89H32.8899ZM232.973 192.461V190.608H233.888V192.461H232.973ZM320.629 195.24V191.588H321.543V195.24H320.629ZM90.0565 195.587V191.955H90.9712V195.587H90.0565ZM21.4565 194.287L21.4565 192.461H22.3712V194.287H21.4565ZM143.412 194.248V192.461H144.327V194.248H143.412ZM204.39 196.919V193.176H205.305V196.919H204.39ZM198.673 197.165V193.473H199.588V197.165H198.673ZM114.829 197.811V194.147H115.743V197.811H114.829ZM109.112 198.321V194.605H110.027V198.321H109.112ZM32.8899 201.24V197.565H33.8045V201.24H32.8899ZM143.412 201.393V197.82H144.327V201.393H143.412ZM21.4565 201.592L21.4565 197.94H22.3712L22.3712 201.592H21.4565ZM320.629 202.545V198.892H321.543V202.545H320.629ZM90.0565 201.036V199.22H90.9712V201.036H90.0565ZM204.39 204.405V200.662H205.305V204.405H204.39ZM198.673 204.549V200.857H199.588V204.549H198.673ZM309.195 202.811V201.036H310.11V202.811H309.195ZM114.829 205.14V201.476H115.743V205.14H114.829ZM109.112 203.894V202.037H110.027V203.894H109.112ZM32.8899 206.753V204.915H33.8045V206.753H32.8899ZM144.327 208.539H143.412V204.966H144.327V208.539ZM21.4565 208.897L21.4565 205.244H22.3712L22.3712 208.897H21.4565ZM320.629 209.849V206.197H321.543V209.849H320.629ZM309.195 209.909V206.36H310.11V209.909H309.195ZM204.39 211.891V208.148H205.305V211.891H204.39ZM198.673 211.934V208.242H199.588V211.934H198.673ZM114.829 212.469V208.805H115.743V212.469H114.829ZM143.412 215.685V212.112H144.327V215.685H143.412ZM21.4565 216.201L21.4565 212.549H22.3712L22.3712 216.201H21.4565ZM309.195 217.007V213.458H310.11V217.007H309.195ZM320.629 215.328V213.502H321.543V215.328H320.629ZM198.673 219.318V215.626H199.588V219.318H198.673ZM204.39 219.377V215.634H205.305V219.377H204.39ZM114.829 219.799V216.134H115.743V219.799H114.829ZM143.412 222.831V219.258H144.327V222.831H143.412ZM21.4565 223.506L21.4565 219.853H22.3712L22.3712 223.506H21.4565ZM309.195 224.105V220.556H310.11V224.105H309.195ZM198.673 226.702V223.01H199.588V226.702H198.673ZM204.39 226.863V223.12H205.305V226.863H204.39ZM114.829 227.128V223.463H115.743V227.128H114.829ZM143.412 229.977V226.404H144.327V229.977H143.412ZM21.4565 230.81L21.4565 227.158H22.3712L22.3712 230.81H21.4565ZM309.195 231.203V227.654H310.11V231.203H309.195ZM198.673 234.086V230.394H199.588V234.086H198.673ZM204.39 234.349V230.606H205.305V234.349H204.39ZM114.829 234.457V230.792H115.743V234.457H114.829ZM143.412 237.123V233.55H144.327V237.123H143.412ZM21.4565 238.115L21.4565 234.463H22.3712L22.3712 238.115H21.4565ZM309.195 238.302V234.753H310.11V238.302H309.195ZM198.673 241.47V237.778H199.588V241.47H198.673ZM204.39 241.835V238.092H205.305V241.835H204.39ZM114.829 241.786V238.121H115.743V241.786H114.829ZM143.412 244.268V240.695H144.327V244.268H143.412ZM21.4565 245.42L21.4565 241.767H22.3712L22.3712 245.42H21.4565ZM309.195 245.4V241.851H310.11V245.4H309.195ZM198.673 248.854V245.162H199.588V248.854H198.673ZM114.829 249.115V245.45H115.743V249.115H114.829ZM204.39 249.322V245.578H205.305V249.322H204.39ZM143.412 251.414V247.841H144.327V251.414H143.412ZM309.195 252.498V248.949H310.11V252.498H309.195ZM21.4565 252.724L21.4565 249.072H22.3712L22.3712 252.724H21.4565ZM198.673 256.238V252.546H199.588V256.238H198.673ZM114.829 256.444V252.779H115.743V256.444H114.829ZM204.39 256.808V253.065H205.305V256.808H204.39ZM143.412 258.56V254.987H144.327V258.56H143.412ZM309.195 259.596V256.047H310.11V259.596H309.195ZM21.4565 260.029L21.4565 256.377H22.3712L22.3712 260.029H21.4565ZM198.673 263.622V259.93H199.588V263.622H198.673ZM114.829 263.773L114.829 260.108H115.743L115.743 263.773H114.829ZM204.39 264.294V260.551H205.305V264.294H204.39ZM143.412 265.706V262.133H144.327V265.706H143.412ZM309.195 266.694V263.145H310.11V266.694H309.195ZM21.4565 267.334L21.4565 263.681H22.3712L22.3712 267.334H21.4565ZM198.673 271.006V267.314H199.588V271.006H198.673ZM114.829 271.102V267.437H115.743V271.102H114.829ZM204.39 271.78V268.037H205.305V271.78H204.39ZM143.412 272.852V269.279H144.327V272.852H143.412ZM309.195 272.018V270.244H310.11V272.018H309.195ZM21.4565 274.638L21.4565 270.986H22.3712L22.3712 274.638H21.4565ZM198.673 278.39V274.698H199.588V278.39H198.673ZM114.829 278.431V274.766H115.743V278.431H114.829ZM204.39 279.266V275.523H205.305V279.266H204.39ZM143.412 278.211V276.425H144.327V278.211H143.412ZM21.4565 280.117L21.4565 278.291H22.3712L22.3712 280.117H21.4565ZM198.673 283.928V282.082H199.588V283.928H198.673ZM114.829 283.928V282.095H115.743V283.928H114.829ZM204.39 284.881V283.009H205.305V284.881H204.39Z" fill="white" fill-opacity="0.5"/>
</svg>
