<?xml version="1.0" encoding="UTF-8"?>
<svg xmlns="http://www.w3.org/2000/svg" xmlns:xlink="http://www.w3.org/1999/xlink" width="56px"
    height="56px" viewBox="0 0 56 56" version="1.1">
    <g id="surface1">
        <path style=" stroke:none;fill-rule:nonzero;fill:rgb(100%,100%,100%);fill-opacity:1;"
            d="M 28 0.699219 C 43.078125 0.699219 55.300781 12.921875 55.300781 28 C 55.300781 43.078125 43.078125 55.300781 28 55.300781 C 12.921875 55.300781 0.699219 43.078125 0.699219 28 C 0.699219 12.921875 12.921875 0.699219 28 0.699219 Z M 28 0.699219 " />
        <path
            style=" stroke:none;fill-rule:nonzero;fill:rgb(25.882353%,52.156863%,95.686275%);fill-opacity:1;"
            d="M 41.441406 28.316406 C 41.441406 27.324219 41.351562 26.371094 41.183594 25.453125 L 28 25.453125 L 28 30.871094 L 35.535156 30.871094 C 35.210938 32.621094 34.222656 34.101562 32.742188 35.09375 L 32.742188 38.609375 L 37.265625 38.609375 C 39.914062 36.171875 41.441406 32.582031 41.441406 28.316406 Z M 41.441406 28.316406 " />
        <path
            style=" stroke:none;fill-rule:nonzero;fill:rgb(20.392157%,65.882353%,32.54902%);fill-opacity:1;"
            d="M 28 42 C 31.78125 42 34.949219 40.746094 37.265625 38.609375 L 32.742188 35.09375 C 31.488281 35.933594 29.882812 36.433594 28 36.433594 C 24.355469 36.433594 21.265625 33.96875 20.167969 30.660156 L 15.488281 30.660156 L 15.488281 34.289062 C 17.792969 38.863281 22.527344 42 28 42 Z M 28 42 " />
        <path
            style=" stroke:none;fill-rule:nonzero;fill:rgb(98.431373%,73.72549%,1.568627%);fill-opacity:1;"
            d="M 20.167969 30.660156 C 19.886719 29.820312 19.726562 28.921875 19.726562 28 C 19.726562 27.078125 19.886719 26.179688 20.167969 25.339844 L 20.167969 21.710938 L 15.488281 21.710938 C 14.539062 23.601562 14 25.742188 14 28 C 14 30.257812 14.539062 32.398438 15.488281 34.289062 Z M 20.167969 30.660156 " />
        <path
            style=" stroke:none;fill-rule:nonzero;fill:rgb(91.372549%,25.882353%,20.784314%);fill-opacity:1;"
            d="M 28 19.566406 C 30.054688 19.566406 31.902344 20.273438 33.351562 21.660156 L 37.367188 17.644531 C 34.941406 15.386719 31.773438 14 28 14 C 22.527344 14 17.792969 17.136719 15.488281 21.710938 L 20.167969 25.339844 C 21.265625 22.03125 24.355469 19.566406 28 19.566406 Z M 28 19.566406 " />
        <path
            style="fill:none;stroke-width:1;stroke-linecap:butt;stroke-linejoin:miter;stroke:rgb(45.490196%,46.666667%,45.882353%);stroke-opacity:1;stroke-miterlimit:4;"
            d="M 20 0.499442 C 30.770089 0.499442 39.500558 9.229911 39.500558 20 C 39.500558 30.770089 30.770089 39.500558 20 39.500558 C 9.229911 39.500558 0.499442 30.770089 0.499442 20 C 0.499442 9.229911 9.229911 0.499442 20 0.499442 Z M 20 0.499442 "
            transform="matrix(1.4,0,0,1.4,0,0)" />
    </g>
</svg>
